<svg width="100" height="100" viewBox="0 0 24 24" fill="#E5C3CF" xmlns="http://www.w3.org/2000/svg">
  <path d="M12 2C10.9 4 10 6.5 10 8C10 9.5 10.9 12 12 14C13.1 12 14 9.5 14 8C14 6.5 13.1 4 12 2Z"/>
  <path d="M2 12C4 10.9 6.5 10 8 10C9.5 10 12 10.9 14 12C12 13.1 9.5 14 8 14C6.5 14 4 13.1 2 12Z"/>
  <path d="M12 22C10.9 20 10 17.5 10 16C10 14.5 10.9 12 12 10C13.1 12 14 14.5 14 16C14 17.5 13.1 20 12 22Z"/>
  <path d="M22 12C20 10.9 17.5 10 16 10C14.5 10 12 10.9 10 12C12 13.1 14.5 14 16 14C17.5 14 20 13.1 22 12Z"/>
  <circle cx="12" cy="12" r="2.5" fill="#3A6EA5"/>
</svg>
